<svg xmlns="http://www.w3.org/2000/svg" xmlns:xlink="http://www.w3.org/1999/xlink" width="500" zoomAndPan="magnify" viewBox="0 0 375 374.999991" height="500" preserveAspectRatio="xMidYMid meet" version="1.0"><defs><g/></defs><g fill="#6a4f40" fill-opacity="1"><g transform="translate(63.498378, 211.499986)"><g><path d="M 7.441406 -49.429688 L 7.441406 -17.621094 C 7.441406 -15.636719 7.464844 -14.152344 7.519531 -13.171875 C 7.59375 -11.824219 7.738281 -10.683594 7.949219 -9.75 C 8.179688 -8.75 8.519531 -7.84375 8.96875 -7.035156 C 9.449219 -6.164062 10.109375 -5.3125 10.9375 -4.484375 C 11.878906 -3.542969 13.0625 -2.785156 14.492188 -2.214844 C 16.097656 -1.574219 17.8125 -1.253906 19.636719 -1.253906 L 20.648438 -1.253906 L 20.648438 0.808594 L 18.585938 0.808594 L 18.585938 -0.941406 L 20.648438 -0.941406 L 20.648438 1.117188 L 20.109375 1.117188 C 18.007812 1.117188 16.042969 0.769531 14.214844 0.0742188 C 12.425781 -0.605469 10.847656 -1.585938 9.484375 -2.871094 C 7.644531 -4.632812 6.4375 -6.863281 5.863281 -9.566406 C 5.621094 -10.703125 5.453125 -12.050781 5.367188 -13.609375 C 5.304688 -14.765625 5.269531 -16.324219 5.269531 -18.292969 L 5.269531 -49.429688 L 7.332031 -49.429688 L 7.332031 -47.371094 L 5.378906 -47.371094 L 5.378906 -49.429688 Z M 3.320312 -51.492188 L 9.390625 -51.492188 L 9.390625 -18.292969 C 9.390625 -16.402344 9.421875 -14.917969 9.480469 -13.839844 C 9.554688 -12.492188 9.691406 -11.355469 9.890625 -10.425781 C 10.097656 -9.457031 10.390625 -8.613281 10.769531 -7.894531 C 11.160156 -7.15625 11.671875 -6.480469 12.304688 -5.871094 C 14.339844 -3.957031 16.941406 -3 20.109375 -3 L 22.707031 -3 L 22.707031 2.867188 L 19.636719 2.867188 C 17.28125 2.867188 15.058594 2.449219 12.964844 1.609375 C 11.011719 0.828125 9.363281 -0.230469 8.027344 -1.570312 C 6.921875 -2.671875 6.035156 -3.828125 5.367188 -5.035156 C 4.730469 -6.1875 4.25 -7.449219 3.9375 -8.828125 C 3.667969 -9.996094 3.492188 -11.367188 3.40625 -12.949219 C 3.347656 -14.003906 3.320312 -15.5625 3.320312 -17.621094 Z M 3.320312 -51.492188 "/></g></g></g><g fill="#6a4f40" fill-opacity="1"><g transform="translate(87.975675, 211.499986)"><g><path d="M 8.515625 -32.617188 L 8.515625 0 L 6.457031 0 L 6.457031 -2.058594 L 8.40625 -2.058594 L 8.40625 0 L 6.347656 0 L 6.347656 -32.617188 L 8.40625 -32.617188 L 8.40625 -30.558594 L 6.457031 -30.558594 L 6.457031 -32.617188 Z M 4.398438 -34.675781 L 10.464844 -34.675781 L 10.464844 2.058594 L 4.398438 2.058594 Z M 8.179688 -43.3125 C 8.179688 -43.457031 8.125 -43.585938 8.011719 -43.703125 C 7.890625 -43.828125 7.75 -43.890625 7.597656 -43.890625 C 7.402344 -43.890625 7.238281 -43.820312 7.105469 -43.675781 C 7.003906 -43.566406 6.953125 -43.445312 6.953125 -43.3125 C 6.953125 -43.175781 7.003906 -43.054688 7.105469 -42.945312 C 7.238281 -42.800781 7.402344 -42.730469 7.597656 -42.730469 C 7.75 -42.730469 7.890625 -42.792969 8.011719 -42.917969 C 8.125 -43.035156 8.179688 -43.167969 8.179688 -43.3125 Z M 4.058594 -43.3125 C 4.058594 -44.277344 4.390625 -45.101562 5.050781 -45.785156 C 5.738281 -46.496094 6.589844 -46.851562 7.597656 -46.851562 C 8.59375 -46.851562 9.429688 -46.488281 10.109375 -45.761719 C 10.75 -45.078125 11.070312 -44.261719 11.070312 -43.3125 C 11.070312 -42.359375 10.75 -41.542969 10.109375 -40.859375 C 9.429688 -40.132812 8.59375 -39.769531 7.597656 -39.769531 C 6.589844 -39.769531 5.738281 -40.125 5.050781 -40.835938 C 4.390625 -41.519531 4.058594 -42.34375 4.058594 -43.3125 Z M 4.058594 -43.3125 "/></g></g></g><g fill="#6a4f40" fill-opacity="1"><g transform="translate(108.149467, 211.499986)"><g><path d="M 3.964844 -33.59375 L 21.921875 -0.238281 L 20.109375 0.738281 L 18.292969 -0.238281 L 36.25 -33.59375 L 38.066406 -32.617188 L 38.066406 -30.558594 L 35.710938 -30.558594 L 35.710938 -32.617188 L 37.53125 -31.652344 L 20.175781 1.105469 L 2.820312 -31.652344 L 4.640625 -32.617188 L 4.640625 -30.558594 L 2.152344 -30.558594 L 2.152344 -32.617188 Z M -1.296875 -34.675781 L 5.878906 -34.675781 L 21.996094 -4.257812 L 20.175781 -3.296875 L 18.355469 -4.257812 L 34.472656 -34.675781 L 41.511719 -34.675781 L 20.109375 5.085938 L 0.339844 -31.640625 Z M -1.296875 -34.675781 "/></g></g></g><g fill="#6a4f40" fill-opacity="1"><g transform="translate(153.942563, 211.499986)"><g><path d="M 7.910156 -32.617188 L 7.910156 0 L 5.851562 0 L 5.851562 -2.058594 L 23.738281 -2.058594 L 23.738281 0 L 21.679688 0 L 21.679688 -1.882812 L 23.738281 -1.882812 L 23.738281 0.175781 L 5.742188 0.175781 L 5.742188 -17.796875 L 23.738281 -17.796875 L 23.738281 -15.738281 L 21.679688 -15.738281 L 21.679688 -17.621094 L 23.738281 -17.621094 L 23.738281 -15.558594 L 5.742188 -15.558594 L 5.742188 -32.792969 L 23.738281 -32.792969 L 23.738281 -30.734375 L 21.679688 -30.734375 L 21.679688 -32.617188 L 23.738281 -32.617188 L 23.738281 -30.558594 L 5.851562 -30.558594 L 5.851562 -32.617188 Z M 3.792969 -34.675781 L 25.800781 -34.675781 L 25.800781 -28.675781 L 7.800781 -28.675781 L 7.800781 -30.734375 L 9.859375 -30.734375 L 9.859375 -17.621094 L 7.800781 -17.621094 L 7.800781 -19.679688 L 25.800781 -19.679688 L 25.800781 -13.675781 L 7.800781 -13.675781 L 7.800781 -15.738281 L 9.859375 -15.738281 L 9.859375 -1.882812 L 7.800781 -1.882812 L 7.800781 -3.941406 L 25.800781 -3.941406 L 25.800781 2.058594 L 3.792969 2.058594 Z M 3.792969 -34.675781 "/></g></g></g><g fill="#6a4f40" fill-opacity="1"><g transform="translate(189.111376, 211.499986)"><g><path d="M 3.671875 -32.617188 L 3.671875 -30.734375 L 1.613281 -30.734375 L 1.613281 -32.792969 L 18.402344 -32.792969 L 18.402344 0 L 16.34375 0 L 16.34375 -2.058594 L 18.292969 -2.058594 L 18.292969 0 L 16.234375 0 L 16.234375 -32.792969 L 32.820312 -32.792969 L 32.820312 -30.734375 L 30.757812 -30.734375 L 30.757812 -32.617188 L 32.820312 -32.617188 L 32.820312 -30.558594 L 1.613281 -30.558594 L 1.613281 -32.617188 Z M -0.445312 -34.675781 L 34.878906 -34.675781 L 34.878906 -28.675781 L 18.292969 -28.675781 L 18.292969 -30.734375 L 20.351562 -30.734375 L 20.351562 2.058594 L 14.28125 2.058594 L 14.28125 -30.734375 L 16.34375 -30.734375 L 16.34375 -28.675781 L -0.445312 -28.675781 Z M -0.445312 -34.675781 "/></g></g></g><g fill="#6a4f40" fill-opacity="1"><g transform="translate(229.121635, 211.499986)"><g><path d="M 3.671875 -32.617188 L 3.671875 -30.734375 L 1.613281 -30.734375 L 1.613281 -32.792969 L 18.402344 -32.792969 L 18.402344 0 L 16.34375 0 L 16.34375 -2.058594 L 18.292969 -2.058594 L 18.292969 0 L 16.234375 0 L 16.234375 -32.792969 L 32.820312 -32.792969 L 32.820312 -30.734375 L 30.757812 -30.734375 L 30.757812 -32.617188 L 32.820312 -32.617188 L 32.820312 -30.558594 L 1.613281 -30.558594 L 1.613281 -32.617188 Z M -0.445312 -34.675781 L 34.878906 -34.675781 L 34.878906 -28.675781 L 18.292969 -28.675781 L 18.292969 -30.734375 L 20.351562 -30.734375 L 20.351562 2.058594 L 14.28125 2.058594 L 14.28125 -30.734375 L 16.34375 -30.734375 L 16.34375 -28.675781 L -0.445312 -28.675781 Z M -0.445312 -34.675781 "/></g></g></g><g fill="#6a4f40" fill-opacity="1"><g transform="translate(269.131893, 211.499986)"><g><path d="M 36.628906 -32.617188 L 36.628906 -24.007812 L 32.667969 -23.207031 C 31.671875 -25.574219 29.980469 -27.488281 27.597656 -28.953125 C 25.199219 -30.425781 22.566406 -31.164062 19.703125 -31.164062 C 17.660156 -31.164062 15.707031 -30.78125 13.847656 -30.011719 C 12.050781 -29.269531 10.457031 -28.21875 9.078125 -26.863281 C 7.691406 -25.5 6.621094 -23.925781 5.863281 -22.144531 C 5.074219 -20.292969 4.683594 -18.335938 4.683594 -16.273438 C 4.683594 -14.148438 5.078125 -12.144531 5.867188 -10.273438 C 6.621094 -8.484375 7.691406 -6.914062 9.078125 -5.558594 C 10.457031 -4.214844 12.050781 -3.179688 13.863281 -2.449219 C 15.726562 -1.695312 17.695312 -1.320312 19.773438 -1.320312 C 22.609375 -1.320312 25.121094 -1.984375 27.3125 -3.316406 C 29.542969 -4.671875 31.355469 -6.667969 32.746094 -9.300781 L 36.628906 -8.339844 L 36.628906 0 L 34.566406 0 L 34.566406 -2.058594 L 36.519531 -2.058594 L 36.519531 0 L 34.457031 0 L 34.457031 -32.617188 L 36.519531 -32.617188 L 36.519531 -30.558594 L 34.566406 -30.558594 L 34.566406 -32.617188 Z M 32.507812 -34.675781 L 38.578125 -34.675781 L 38.578125 2.058594 L 32.507812 2.058594 L 32.507812 -8.339844 L 34.566406 -8.339844 L 36.390625 -7.378906 C 34.644531 -4.070312 32.332031 -1.542969 29.449219 0.207031 C 26.601562 1.933594 23.375 2.800781 19.773438 2.800781 C 17.164062 2.800781 14.679688 2.324219 12.320312 1.371094 C 10.007812 0.4375 7.96875 -0.890625 6.203125 -2.609375 C 4.417969 -4.351562 3.042969 -6.371094 2.070312 -8.671875 C 1.066406 -11.058594 0.5625 -13.589844 0.5625 -16.273438 C 0.5625 -18.898438 1.066406 -21.390625 2.074219 -23.757812 C 3.042969 -26.039062 4.414062 -28.054688 6.1875 -29.796875 C 7.953125 -31.535156 9.980469 -32.875 12.277344 -33.820312 C 14.640625 -34.796875 17.113281 -35.28125 19.703125 -35.28125 C 21.496094 -35.28125 23.253906 -35.039062 24.980469 -34.550781 C 26.679688 -34.070312 28.273438 -33.375 29.753906 -32.464844 C 31.253906 -31.542969 32.570312 -30.445312 33.699219 -29.171875 C 34.875 -27.847656 35.796875 -26.394531 36.464844 -24.808594 L 34.566406 -24.007812 L 32.507812 -24.007812 Z M 19.570312 -33.464844 C 21.914062 -33.464844 24.15625 -33.027344 26.289062 -32.144531 C 28.371094 -31.285156 30.207031 -30.070312 31.804688 -28.492188 C 33.410156 -26.902344 34.652344 -25.070312 35.53125 -22.984375 C 36.441406 -20.828125 36.898438 -18.542969 36.898438 -16.140625 C 36.898438 -13.769531 36.449219 -11.515625 35.558594 -9.378906 C 34.695312 -7.316406 33.476562 -5.492188 31.898438 -3.914062 C 30.324219 -2.34375 28.515625 -1.128906 26.46875 -0.273438 C 24.363281 0.609375 22.152344 1.050781 19.839844 1.050781 C 17.464844 1.050781 15.210938 0.609375 13.074219 -0.269531 C 10.996094 -1.128906 9.164062 -2.351562 7.582031 -3.933594 C 5.996094 -5.519531 4.769531 -7.355469 3.910156 -9.445312 C 3.023438 -11.59375 2.582031 -13.871094 2.582031 -16.273438 C 2.582031 -18.628906 3.027344 -20.875 3.917969 -23.007812 C 4.78125 -25.066406 5.996094 -26.890625 7.566406 -28.46875 C 9.132812 -30.046875 10.9375 -31.265625 12.972656 -32.128906 C 15.074219 -33.019531 17.273438 -33.464844 19.570312 -33.464844 Z M 19.570312 -29.347656 C 17.832031 -29.347656 16.167969 -29.011719 14.582031 -28.339844 C 13.039062 -27.683594 11.675781 -26.761719 10.488281 -25.566406 C 9.296875 -24.367188 8.375 -22.984375 7.71875 -21.421875 C 7.039062 -19.792969 6.699219 -18.078125 6.699219 -16.273438 C 6.699219 -14.414062 7.039062 -12.660156 7.71875 -11.015625 C 8.371094 -9.433594 9.296875 -8.042969 10.492188 -6.84375 C 11.6875 -5.648438 13.074219 -4.726562 14.648438 -4.078125 C 16.277344 -3.40625 18.007812 -3.070312 19.839844 -3.070312 C 21.601562 -3.070312 23.28125 -3.402344 24.875 -4.070312 C 26.425781 -4.722656 27.796875 -5.640625 28.984375 -6.828125 C 30.179688 -8.023438 31.101562 -9.402344 31.757812 -10.96875 C 32.4375 -12.597656 32.777344 -14.320312 32.777344 -16.140625 C 32.777344 -17.988281 32.429688 -19.738281 31.734375 -21.386719 C 31.070312 -22.964844 30.128906 -24.359375 28.910156 -25.5625 C 27.695312 -26.757812 26.300781 -27.683594 24.714844 -28.335938 C 23.085938 -29.011719 21.371094 -29.347656 19.570312 -29.347656 Z M 19.570312 -29.347656 "/></g></g></g><g fill="#6a4f40" fill-opacity="1"><g transform="translate(63.498378, 211.499986)"><g><path d="M 5.378906 -49.429688 L 5.378906 -17.621094 C 5.378906 -10.894531 5.515625 -6.996094 9.484375 -3.027344 C 11.632812 -0.875 15.265625 0.808594 19.636719 0.808594 C 19.703125 0.808594 20.109375 0.808594 20.648438 0.808594 L 20.648438 -0.941406 L 20.109375 -0.941406 C 16.34375 -0.941406 13.179688 -2.21875 10.894531 -4.371094 C 7.597656 -7.53125 7.332031 -11.566406 7.332031 -18.292969 L 7.332031 -49.429688 Z M 5.378906 -49.429688 "/></g></g></g><g fill="#6a4f40" fill-opacity="1"><g transform="translate(87.975675, 211.499986)"><g><path d="M 6.457031 -32.617188 L 6.457031 0 L 8.40625 0 L 8.40625 -32.617188 Z M 6.121094 -43.3125 C 6.121094 -42.503906 6.726562 -41.832031 7.597656 -41.832031 C 8.40625 -41.832031 9.011719 -42.503906 9.011719 -43.3125 C 9.011719 -44.117188 8.40625 -44.789062 7.597656 -44.789062 C 6.726562 -44.789062 6.121094 -44.117188 6.121094 -43.3125 Z M 6.121094 -43.3125 "/></g></g></g><g fill="#6a4f40" fill-opacity="1"><g transform="translate(108.149467, 211.499986)"><g><path d="M 2.152344 -32.617188 L 20.109375 0.738281 L 38.066406 -32.617188 L 35.710938 -32.617188 L 20.175781 -3.296875 L 4.640625 -32.617188 Z M 2.152344 -32.617188 "/></g></g></g><g fill="#6a4f40" fill-opacity="1"><g transform="translate(153.942563, 211.499986)"><g><path d="M 5.851562 -32.617188 L 5.851562 0 L 23.738281 0 L 23.738281 -1.882812 L 7.800781 -1.882812 L 7.800781 -15.738281 L 23.738281 -15.738281 L 23.738281 -17.621094 L 7.800781 -17.621094 L 7.800781 -30.734375 L 23.738281 -30.734375 L 23.738281 -32.617188 Z M 5.851562 -32.617188 "/></g></g></g><g fill="#6a4f40" fill-opacity="1"><g transform="translate(189.111376, 211.499986)"><g><path d="M 1.613281 -32.617188 L 1.613281 -30.734375 L 16.34375 -30.734375 L 16.34375 0 L 18.292969 0 L 18.292969 -30.734375 L 32.820312 -30.734375 L 32.820312 -32.617188 Z M 1.613281 -32.617188 "/></g></g></g><g fill="#6a4f40" fill-opacity="1"><g transform="translate(229.121635, 211.499986)"><g><path d="M 1.613281 -32.617188 L 1.613281 -30.734375 L 16.34375 -30.734375 L 16.34375 0 L 18.292969 0 L 18.292969 -30.734375 L 32.820312 -30.734375 L 32.820312 -32.617188 Z M 1.613281 -32.617188 "/></g></g></g><g fill="#6a4f40" fill-opacity="1"><g transform="translate(269.131893, 211.499986)"><g><path d="M 34.566406 -32.617188 L 34.566406 -24.007812 C 32.214844 -29.589844 26.160156 -33.222656 19.703125 -33.222656 C 10.289062 -33.222656 2.621094 -25.824219 2.621094 -16.273438 C 2.621094 -6.457031 10.289062 0.738281 19.773438 0.738281 C 26.160156 0.738281 31.40625 -2.355469 34.566406 -8.339844 L 34.566406 0 L 36.519531 0 L 36.519531 -32.617188 Z M 19.570312 -31.40625 C 27.976562 -31.40625 34.835938 -24.816406 34.835938 -16.140625 C 34.835938 -7.597656 28.113281 -1.007812 19.839844 -1.007812 C 11.296875 -1.007812 4.640625 -7.597656 4.640625 -16.273438 C 4.640625 -24.75 11.367188 -31.40625 19.570312 -31.40625 Z M 19.570312 -31.40625 "/></g></g></g><g fill="#6a4f40" fill-opacity="1"><g transform="translate(122.758479, 247.475199)"><g><path d="M 2.628906 -10.074219 L 2.628906 0 L 1.996094 0 L 1.996094 -0.636719 L 2.597656 -0.636719 L 2.597656 0 L 1.960938 0 L 1.960938 -10.074219 L 2.597656 -10.074219 L 2.597656 -9.441406 L 1.996094 -9.441406 L 1.996094 -10.074219 Z M 1.359375 -10.710938 L 3.234375 -10.710938 L 3.234375 0.636719 L 1.359375 0.636719 Z M 2.527344 -13.378906 C 2.527344 -13.421875 2.507812 -13.464844 2.476562 -13.5 C 2.4375 -13.539062 2.394531 -13.558594 2.347656 -13.558594 C 2.289062 -13.558594 2.234375 -13.535156 2.195312 -13.492188 C 2.164062 -13.457031 2.148438 -13.421875 2.148438 -13.378906 C 2.148438 -13.335938 2.164062 -13.300781 2.195312 -13.265625 C 2.234375 -13.222656 2.289062 -13.199219 2.347656 -13.199219 C 2.394531 -13.199219 2.4375 -13.21875 2.476562 -13.257812 C 2.507812 -13.292969 2.527344 -13.335938 2.527344 -13.378906 Z M 1.253906 -13.378906 C 1.253906 -13.679688 1.355469 -13.933594 1.5625 -14.144531 C 1.773438 -14.363281 2.035156 -14.472656 2.347656 -14.472656 C 2.65625 -14.472656 2.914062 -14.359375 3.125 -14.136719 C 3.320312 -13.925781 3.421875 -13.671875 3.421875 -13.378906 C 3.421875 -13.085938 3.320312 -12.832031 3.125 -12.621094 C 2.914062 -12.398438 2.65625 -12.285156 2.347656 -12.285156 C 2.035156 -12.285156 1.773438 -12.394531 1.5625 -12.613281 C 1.355469 -12.824219 1.253906 -13.082031 1.253906 -13.378906 Z M 1.253906 -13.378906 "/></g></g></g><g fill="#6a4f40" fill-opacity="1"><g transform="translate(135.970282, 247.475199)"><g><path d="M 2.445312 -10.304688 L 2.445312 0 L 1.808594 0 L 1.808594 -0.636719 L 2.410156 -0.636719 L 2.410156 0 L 1.773438 0 L 1.773438 -10.363281 L 12.792969 -0.21875 L 12.359375 0.25 L 11.726562 0.25 L 11.726562 -10.074219 L 12.359375 -10.074219 L 12.359375 -9.441406 L 11.757812 -9.441406 L 11.757812 -10.074219 L 12.394531 -10.074219 L 12.394531 0.332031 L 1.375 -9.835938 L 1.808594 -10.304688 Z M 1.171875 -11.757812 L 12.191406 -1.589844 L 11.757812 -1.121094 L 11.121094 -1.121094 L 11.121094 -10.710938 L 12.996094 -10.710938 L 12.996094 1.699219 L 1.980469 -8.445312 L 2.410156 -8.914062 L 3.046875 -8.914062 L 3.046875 0.636719 L 1.171875 0.636719 Z M 1.171875 -11.757812 "/></g></g></g><g fill="#6a4f40" fill-opacity="1"><g transform="translate(158.838116, 247.475199)"><g><path d="M 1.136719 -10.074219 L 1.136719 -9.496094 L 0.5 -9.496094 L 0.5 -10.128906 L 5.683594 -10.128906 L 5.683594 0 L 5.046875 0 L 5.046875 -0.636719 L 5.652344 -0.636719 L 5.652344 0 L 5.015625 0 L 5.015625 -10.128906 L 10.136719 -10.128906 L 10.136719 -9.496094 L 9.5 -9.496094 L 9.5 -10.074219 L 10.136719 -10.074219 L 10.136719 -9.441406 L 0.5 -9.441406 L 0.5 -10.074219 Z M -0.136719 -10.710938 L 10.773438 -10.710938 L 10.773438 -8.859375 L 5.652344 -8.859375 L 5.652344 -9.496094 L 6.285156 -9.496094 L 6.285156 0.636719 L 4.410156 0.636719 L 4.410156 -9.496094 L 5.046875 -9.496094 L 5.046875 -8.859375 L -0.136719 -8.859375 Z M -0.136719 -10.710938 "/></g></g></g><g fill="#6a4f40" fill-opacity="1"><g transform="translate(178.175792, 247.475199)"><g><path d="M 2.445312 -10.074219 L 2.445312 0 L 1.808594 0 L 1.808594 -0.636719 L 7.332031 -0.636719 L 7.332031 0 L 6.699219 0 L 6.699219 -0.582031 L 7.332031 -0.582031 L 7.332031 0.0546875 L 1.773438 0.0546875 L 1.773438 -5.496094 L 7.332031 -5.496094 L 7.332031 -4.863281 L 6.699219 -4.863281 L 6.699219 -5.441406 L 7.332031 -5.441406 L 7.332031 -4.808594 L 1.773438 -4.808594 L 1.773438 -10.128906 L 7.332031 -10.128906 L 7.332031 -9.496094 L 6.699219 -9.496094 L 6.699219 -10.074219 L 7.332031 -10.074219 L 7.332031 -9.441406 L 1.808594 -9.441406 L 1.808594 -10.074219 Z M 1.171875 -10.710938 L 7.96875 -10.710938 L 7.96875 -8.859375 L 2.410156 -8.859375 L 2.410156 -9.496094 L 3.046875 -9.496094 L 3.046875 -5.441406 L 2.410156 -5.441406 L 2.410156 -6.078125 L 7.96875 -6.078125 L 7.96875 -4.226562 L 2.410156 -4.226562 L 2.410156 -4.863281 L 3.046875 -4.863281 L 3.046875 -0.582031 L 2.410156 -0.582031 L 2.410156 -1.21875 L 7.96875 -1.21875 L 7.96875 0.636719 L 1.171875 0.636719 Z M 1.171875 -10.710938 "/></g></g></g><g fill="#6a4f40" fill-opacity="1"><g transform="translate(196.018343, 247.475199)"><g><path d="M 1.660156 -0.636719 L 2.265625 -0.636719 L 2.265625 0 L 1.628906 0 L 1.628906 -4.714844 C 1.632812 -5.25 1.648438 -5.691406 1.675781 -6.03125 C 1.710938 -6.464844 1.765625 -6.851562 1.847656 -7.179688 C 2.03125 -7.949219 2.390625 -8.589844 2.925781 -9.101562 C 3.347656 -9.5 3.839844 -9.804688 4.390625 -10.015625 C 4.957031 -10.230469 5.5625 -10.339844 6.210938 -10.339844 L 6.378906 -10.339844 L 6.378906 -9.703125 L 5.742188 -9.703125 L 5.742188 -10.242188 L 6.378906 -10.242188 L 6.300781 -9.609375 C 6.214844 -9.621094 6.121094 -9.625 6.023438 -9.625 C 5.507812 -9.625 5.003906 -9.527344 4.519531 -9.335938 C 4.058594 -9.152344 3.679688 -8.910156 3.378906 -8.609375 C 3.121094 -8.351562 2.917969 -8.089844 2.769531 -7.820312 C 2.632812 -7.570312 2.527344 -7.289062 2.457031 -6.980469 C 2.390625 -6.691406 2.34375 -6.339844 2.324219 -5.921875 C 2.304688 -5.621094 2.296875 -5.164062 2.296875 -4.550781 L 2.296875 0 L 1.660156 0 Z M 1.027344 0.636719 L 1.027344 -4.550781 C 1.027344 -5.183594 1.035156 -5.667969 1.050781 -5.992188 C 1.078125 -6.480469 1.132812 -6.90625 1.214844 -7.265625 C 1.3125 -7.691406 1.460938 -8.082031 1.65625 -8.4375 C 1.863281 -8.808594 2.136719 -9.167969 2.480469 -9.507812 C 2.902344 -9.933594 3.425781 -10.269531 4.046875 -10.515625 C 4.683594 -10.769531 5.34375 -10.898438 6.023438 -10.898438 C 6.175781 -10.898438 6.320312 -10.890625 6.457031 -10.875 L 7.015625 -10.804688 L 7.015625 -9.066406 L 6.210938 -9.066406 C 5.234375 -9.066406 4.429688 -8.769531 3.804688 -8.183594 C 3.453125 -7.84375 3.210938 -7.410156 3.082031 -6.878906 C 2.972656 -6.421875 2.910156 -5.699219 2.902344 -4.714844 L 2.902344 0.636719 Z M 1.027344 0.636719 "/></g></g></g><g fill="#6a4f40" fill-opacity="1"><g transform="translate(211.431314, 247.475199)"><g><path d="M 2.628906 -10.074219 L 2.628906 0 L 1.996094 0 L 1.996094 -0.636719 L 2.597656 -0.636719 L 2.597656 0 L 1.960938 0 L 1.960938 -10.074219 L 2.597656 -10.074219 L 2.597656 -9.441406 L 1.996094 -9.441406 L 1.996094 -10.074219 Z M 1.359375 -10.710938 L 3.234375 -10.710938 L 3.234375 0.636719 L 1.359375 0.636719 Z M 2.527344 -13.378906 C 2.527344 -13.421875 2.507812 -13.464844 2.476562 -13.5 C 2.4375 -13.539062 2.394531 -13.558594 2.347656 -13.558594 C 2.289062 -13.558594 2.234375 -13.535156 2.195312 -13.492188 C 2.164062 -13.457031 2.148438 -13.421875 2.148438 -13.378906 C 2.148438 -13.335938 2.164062 -13.300781 2.195312 -13.265625 C 2.234375 -13.222656 2.289062 -13.199219 2.347656 -13.199219 C 2.394531 -13.199219 2.4375 -13.21875 2.476562 -13.257812 C 2.507812 -13.292969 2.527344 -13.335938 2.527344 -13.378906 Z M 1.253906 -13.378906 C 1.253906 -13.679688 1.355469 -13.933594 1.5625 -14.144531 C 1.773438 -14.363281 2.035156 -14.472656 2.347656 -14.472656 C 2.65625 -14.472656 2.914062 -14.359375 3.125 -14.136719 C 3.320312 -13.925781 3.421875 -13.671875 3.421875 -13.378906 C 3.421875 -13.085938 3.320312 -12.832031 3.125 -12.621094 C 2.914062 -12.398438 2.65625 -12.285156 2.347656 -12.285156 C 2.035156 -12.285156 1.773438 -12.394531 1.5625 -12.613281 C 1.355469 -12.824219 1.253906 -13.082031 1.253906 -13.378906 Z M 1.253906 -13.378906 "/></g></g></g><g fill="#6a4f40" fill-opacity="1"><g transform="translate(224.643117, 247.475199)"><g><path d="M 6.085938 -9.625 C 5.445312 -9.625 4.839844 -9.507812 4.261719 -9.265625 C 3.707031 -9.035156 3.21875 -8.707031 2.792969 -8.28125 C 2.367188 -7.859375 2.039062 -7.371094 1.808594 -6.816406 C 1.566406 -6.246094 1.445312 -5.640625 1.445312 -5.007812 C 1.445312 -4.371094 1.566406 -3.769531 1.804688 -3.199219 C 2.035156 -2.648438 2.359375 -2.160156 2.78125 -1.742188 C 3.203125 -1.320312 3.691406 -0.996094 4.246094 -0.765625 C 4.820312 -0.527344 5.425781 -0.40625 6.066406 -0.40625 C 6.707031 -0.40625 7.316406 -0.527344 7.894531 -0.769531 C 8.453125 -1 8.945312 -1.328125 9.375 -1.75 C 9.800781 -2.171875 10.132812 -2.660156 10.367188 -3.210938 C 10.605469 -3.78125 10.726562 -4.378906 10.726562 -5.007812 C 10.726562 -5.640625 10.605469 -6.242188 10.363281 -6.816406 C 10.132812 -7.371094 9.800781 -7.859375 9.375 -8.28125 C 8.949219 -8.707031 8.457031 -9.035156 7.902344 -9.265625 C 7.328125 -9.507812 6.722656 -9.625 6.085938 -9.625 Z M 6.085938 -10.898438 C 6.890625 -10.898438 7.660156 -10.746094 8.390625 -10.441406 C 9.101562 -10.144531 9.726562 -9.726562 10.273438 -9.183594 C 10.816406 -8.640625 11.238281 -8.019531 11.539062 -7.3125 C 11.847656 -6.582031 12 -5.8125 12 -5.007812 C 12 -4.207031 11.847656 -3.441406 11.535156 -2.714844 C 11.238281 -2.007812 10.816406 -1.386719 10.269531 -0.847656 C 9.722656 -0.304688 9.09375 0.113281 8.382812 0.40625 C 7.648438 0.710938 6.875 0.863281 6.066406 0.863281 C 5.257812 0.863281 4.488281 0.714844 3.757812 0.410156 C 3.046875 0.117188 2.421875 -0.300781 1.882812 -0.839844 C 1.34375 -1.378906 0.925781 -2 0.628906 -2.707031 C 0.324219 -3.433594 0.175781 -4.203125 0.175781 -5.007812 C 0.175781 -5.8125 0.328125 -6.578125 0.632812 -7.308594 C 0.929688 -8.015625 1.351562 -8.640625 1.894531 -9.183594 C 2.4375 -9.726562 3.0625 -10.144531 3.773438 -10.441406 C 4.507812 -10.746094 5.277344 -10.898438 6.085938 -10.898438 Z M 6.066406 -10.339844 C 6.800781 -10.339844 7.496094 -10.203125 8.152344 -9.925781 C 8.792969 -9.660156 9.355469 -9.285156 9.84375 -8.796875 C 10.328125 -8.308594 10.703125 -7.746094 10.96875 -7.105469 C 11.242188 -6.449219 11.378906 -5.757812 11.378906 -5.027344 C 11.378906 -4.285156 11.242188 -3.582031 10.972656 -2.921875 C 10.710938 -2.273438 10.339844 -1.707031 9.855469 -1.21875 C 9.371094 -0.726562 8.808594 -0.351562 8.171875 -0.0859375 C 7.515625 0.1875 6.820312 0.324219 6.085938 0.324219 C 5.363281 0.324219 4.671875 0.1875 4.019531 -0.0859375 C 3.382812 -0.351562 2.820312 -0.730469 2.335938 -1.21875 C 1.847656 -1.707031 1.472656 -2.269531 1.207031 -2.90625 C 0.933594 -3.566406 0.796875 -4.257812 0.796875 -4.984375 C 0.796875 -5.722656 0.933594 -6.421875 1.203125 -7.085938 C 1.464844 -7.730469 1.839844 -8.296875 2.324219 -8.789062 C 2.804688 -9.277344 3.363281 -9.65625 4 -9.925781 C 4.652344 -10.199219 5.339844 -10.339844 6.066406 -10.339844 Z M 6.066406 -9.066406 C 5.511719 -9.066406 4.988281 -8.960938 4.492188 -8.753906 C 4.015625 -8.550781 3.59375 -8.265625 3.230469 -7.894531 C 2.863281 -7.523438 2.582031 -7.09375 2.382812 -6.605469 C 2.171875 -6.09375 2.070312 -5.554688 2.070312 -4.984375 C 2.070312 -4.425781 2.175781 -3.898438 2.382812 -3.394531 C 2.585938 -2.914062 2.867188 -2.484375 3.238281 -2.117188 C 3.605469 -1.746094 4.03125 -1.460938 4.511719 -1.261719 C 5.007812 -1.050781 5.535156 -0.949219 6.085938 -0.949219 C 6.652344 -0.949219 7.183594 -1.050781 7.683594 -1.257812 C 8.164062 -1.460938 8.585938 -1.742188 8.949219 -2.113281 C 9.316406 -2.480469 9.597656 -2.910156 9.792969 -3.398438 C 10 -3.90625 10.105469 -4.449219 10.105469 -5.027344 C 10.105469 -5.585938 10 -6.117188 9.792969 -6.617188 C 9.59375 -7.101562 9.308594 -7.527344 8.941406 -7.898438 C 8.574219 -8.265625 8.148438 -8.550781 7.664062 -8.753906 C 7.164062 -8.960938 6.628906 -9.066406 6.066406 -9.066406 Z M 6.066406 -9.066406 "/></g></g></g><g fill="#6a4f40" fill-opacity="1"><g transform="translate(245.517448, 247.475199)"><g><path d="M 1.660156 -0.636719 L 2.265625 -0.636719 L 2.265625 0 L 1.628906 0 L 1.628906 -4.714844 C 1.632812 -5.25 1.648438 -5.691406 1.675781 -6.03125 C 1.710938 -6.464844 1.765625 -6.851562 1.847656 -7.179688 C 2.03125 -7.949219 2.390625 -8.589844 2.925781 -9.101562 C 3.347656 -9.5 3.839844 -9.804688 4.390625 -10.015625 C 4.957031 -10.230469 5.5625 -10.339844 6.210938 -10.339844 L 6.378906 -10.339844 L 6.378906 -9.703125 L 5.742188 -9.703125 L 5.742188 -10.242188 L 6.378906 -10.242188 L 6.300781 -9.609375 C 6.214844 -9.621094 6.121094 -9.625 6.023438 -9.625 C 5.507812 -9.625 5.003906 -9.527344 4.519531 -9.335938 C 4.058594 -9.152344 3.679688 -8.910156 3.378906 -8.609375 C 3.121094 -8.351562 2.917969 -8.089844 2.769531 -7.820312 C 2.632812 -7.570312 2.527344 -7.289062 2.457031 -6.980469 C 2.390625 -6.691406 2.34375 -6.339844 2.324219 -5.921875 C 2.304688 -5.621094 2.296875 -5.164062 2.296875 -4.550781 L 2.296875 0 L 1.660156 0 Z M 1.027344 0.636719 L 1.027344 -4.550781 C 1.027344 -5.183594 1.035156 -5.667969 1.050781 -5.992188 C 1.078125 -6.480469 1.132812 -6.90625 1.214844 -7.265625 C 1.3125 -7.691406 1.460938 -8.082031 1.65625 -8.4375 C 1.863281 -8.808594 2.136719 -9.167969 2.480469 -9.507812 C 2.902344 -9.933594 3.425781 -10.269531 4.046875 -10.515625 C 4.683594 -10.769531 5.34375 -10.898438 6.023438 -10.898438 C 6.175781 -10.898438 6.320312 -10.890625 6.457031 -10.875 L 7.015625 -10.804688 L 7.015625 -9.066406 L 6.210938 -9.066406 C 5.234375 -9.066406 4.429688 -8.769531 3.804688 -8.183594 C 3.453125 -7.84375 3.210938 -7.410156 3.082031 -6.878906 C 2.972656 -6.421875 2.910156 -5.699219 2.902344 -4.714844 L 2.902344 0.636719 Z M 1.027344 0.636719 "/></g></g></g><g fill="#6a4f40" fill-opacity="1"><g transform="translate(122.758479, 247.475199)"><g><path d="M 1.996094 -10.074219 L 1.996094 0 L 2.597656 0 L 2.597656 -10.074219 Z M 1.890625 -13.378906 C 1.890625 -13.128906 2.078125 -12.921875 2.347656 -12.921875 C 2.597656 -12.921875 2.785156 -13.128906 2.785156 -13.378906 C 2.785156 -13.628906 2.597656 -13.835938 2.347656 -13.835938 C 2.078125 -13.835938 1.890625 -13.628906 1.890625 -13.378906 Z M 1.890625 -13.378906 "/></g></g></g><g fill="#6a4f40" fill-opacity="1"><g transform="translate(135.970282, 247.475199)"><g><path d="M 1.808594 -10.304688 L 1.808594 0 L 2.410156 0 L 2.410156 -8.914062 L 12.359375 0.25 L 12.359375 -10.074219 L 11.757812 -10.074219 L 11.757812 -1.121094 Z M 1.808594 -10.304688 "/></g></g></g><g fill="#6a4f40" fill-opacity="1"><g transform="translate(158.838116, 247.475199)"><g><path d="M 0.5 -10.074219 L 0.5 -9.496094 L 5.046875 -9.496094 L 5.046875 0 L 5.652344 0 L 5.652344 -9.496094 L 10.136719 -9.496094 L 10.136719 -10.074219 Z M 0.5 -10.074219 "/></g></g></g><g fill="#6a4f40" fill-opacity="1"><g transform="translate(178.175792, 247.475199)"><g><path d="M 1.808594 -10.074219 L 1.808594 0 L 7.332031 0 L 7.332031 -0.582031 L 2.410156 -0.582031 L 2.410156 -4.863281 L 7.332031 -4.863281 L 7.332031 -5.441406 L 2.410156 -5.441406 L 2.410156 -9.496094 L 7.332031 -9.496094 L 7.332031 -10.074219 Z M 1.808594 -10.074219 "/></g></g></g><g fill="#6a4f40" fill-opacity="1"><g transform="translate(196.018343, 247.475199)"><g><path d="M 1.660156 0 L 2.265625 0 L 2.265625 -4.714844 C 2.285156 -6.566406 2.410156 -7.726562 3.367188 -8.640625 C 4.070312 -9.308594 5.046875 -9.703125 6.210938 -9.703125 L 6.378906 -9.703125 L 6.378906 -10.242188 C 6.210938 -10.261719 6.148438 -10.261719 6.023438 -10.261719 C 4.800781 -10.261719 3.636719 -9.765625 2.929688 -9.058594 C 1.703125 -7.832031 1.660156 -6.628906 1.660156 -4.550781 Z M 1.660156 0 "/></g></g></g><g fill="#6a4f40" fill-opacity="1"><g transform="translate(211.431314, 247.475199)"><g><path d="M 1.996094 -10.074219 L 1.996094 0 L 2.597656 0 L 2.597656 -10.074219 Z M 1.890625 -13.378906 C 1.890625 -13.128906 2.078125 -12.921875 2.347656 -12.921875 C 2.597656 -12.921875 2.785156 -13.128906 2.785156 -13.378906 C 2.785156 -13.628906 2.597656 -13.835938 2.347656 -13.835938 C 2.078125 -13.835938 1.890625 -13.628906 1.890625 -13.378906 Z M 1.890625 -13.378906 "/></g></g></g><g fill="#6a4f40" fill-opacity="1"><g transform="translate(224.643117, 247.475199)"><g><path d="M 6.085938 -10.261719 C 3.136719 -10.261719 0.808594 -7.9375 0.808594 -5.007812 C 0.808594 -2.078125 3.117188 0.230469 6.066406 0.230469 C 9.015625 0.230469 11.363281 -2.097656 11.363281 -5.007812 C 11.363281 -7.9375 9.015625 -10.261719 6.085938 -10.261719 Z M 6.066406 -9.703125 C 8.703125 -9.703125 10.742188 -7.644531 10.742188 -5.027344 C 10.742188 -2.347656 8.726562 -0.3125 6.085938 -0.3125 C 3.488281 -0.3125 1.433594 -2.367188 1.433594 -4.984375 C 1.433594 -7.644531 3.46875 -9.703125 6.066406 -9.703125 Z M 6.066406 -9.703125 "/></g></g></g><g fill="#6a4f40" fill-opacity="1"><g transform="translate(245.517448, 247.475199)"><g><path d="M 1.660156 0 L 2.265625 0 L 2.265625 -4.714844 C 2.285156 -6.566406 2.410156 -7.726562 3.367188 -8.640625 C 4.070312 -9.308594 5.046875 -9.703125 6.210938 -9.703125 L 6.378906 -9.703125 L 6.378906 -10.242188 C 6.210938 -10.261719 6.148438 -10.261719 6.023438 -10.261719 C 4.800781 -10.261719 3.636719 -9.765625 2.929688 -9.058594 C 1.703125 -7.832031 1.660156 -6.628906 1.660156 -4.550781 Z M 1.660156 0 "/></g></g></g></svg>